<svg width="356" height="156" viewBox="0 0 356 156" fill="none" xmlns="http://www.w3.org/2000/svg">
<path d="M0.699951 148.2L183.3 112.4L204.3 131.8L234 98.4L355.7 60.2H21.7L0.699951 148.2Z" fill="#180642"/>
<path d="M355.6 60H21.7V60.2H355.6V60Z" fill="#CE152D"/>
<path d="M355.7 0.199997H21.7V60H355.7V0.199997Z" fill="#180642"/>
<path d="M234 42.5C234.1 42 234.7 41.5 235.2 41.5L247.8 40.4L249.7 33.1L229.7 34.9C227.6 35.1 225.5 37.1 224.9 39.4L223 46.4C221.7 51.4 224.5 55.1 229.3 54.7L233.1 54.4C233.6 54.4 233.9 54.7 233.8 55.3L232.4 60.4C232.3 60.9 231.7 61.4 231.2 61.4L213 62.8L212.1 57.5L203.5 76.9L195.8 80.3L47 93.4L64.6 27.3L45.9 29L51 33.7L28 120.2L201.6 89.1L204.8 107.1L213.4 87.7L232.3 79.3L215.2 75.5L214.2 69.9L236.8 67.9C238.9 67.7 241 65.7 241.6 63.4L243.4 56.4C244.7 51.4 241.9 47.7 237.1 48.1L233.3 48.4C232.8 48.4 232.5 48.1 232.6 47.5L234 42.5Z" fill="white"/>
<path d="M220.6 42.7L222.5 35.4L204.4 37C202.3 37.2 200.2 39.2 199.6 41.5L193.5 64.5L171.5 66.4C171 66.4 170.7 66.1 170.8 65.5L172.4 59.5L189.2 58L192.2 46.9C193.5 41.9 190.7 38.2 185.9 38.6L171.3 40C169.2 40.2 167.1 42.2 166.5 44.5L160.8 65.7C160.6 66.3 160.5 66.9 160.5 67.4L155.1 67.9C154.6 67.9 154.3 67.6 154.4 67L167.4 18.1L150.6 19.6L155.7 24.3L151.1 41.8L138 42.9C135.9 43.1 133.8 45.1 133.2 47.4L127.5 68.6C127.3 69.2 127.2 69.8 127.2 70.3L121.8 70.8C121.3 70.8 121 70.5 121.1 69.9L125.7 52.8C127 47.8 124.2 44.1 119.4 44.5L101.1 46.1L93.9 73.2L88.7 73.7C88.2 73.7 87.9 73.4 88 72.8L92.6 55.7C93.9 50.7 91.1 47 86.3 47.4L68.1 49L66.2 56.3L82 54.9C82.5 54.9 82.8 55.2 82.7 55.8L81.2 61.5L68.3 62.6C66.2 62.8 64 64.7 63.4 66.9L61.4 74.4C60.1 79.4 62.9 83.1 67.7 82.7L77.5 81.8C78.5 81.7 79.6 81 80.3 80.1C81 80.9 82.3 81.4 83.9 81.2L90.1 80.7L93.1 77.1L92.2 80.5L102.4 79.6L109.6 52.5L115.2 52C115.7 52 116 52.3 115.9 52.9L111.3 70C110 75 112.8 78.7 117.6 78.3L123.2 77.8L127.5 72.5C128.1 75.3 130.5 77.1 134 76.8L143.8 75.9C144.9 75.8 145.9 75.1 146.6 74.2C147.3 75 148.6 75.5 150.2 75.3L156.4 74.8L160.7 69.5C161.3 72.3 163.7 74.1 167.2 73.8L189.6 71.8L192.6 68.2L191.7 71.6L201.9 70.7L208.9 44.5C209 44 209.6 43.5 210.1 43.5L220.6 42.7ZM175.6 47.6C175.7 47.1 176.3 46.6 176.8 46.6L181.5 46.2C182 46.2 182.3 46.5 182.2 47.1L180.6 53.1L174.1 53.7L175.6 47.6ZM77.9 73.8C77.8 74.3 77.2 74.8 76.7 74.8L72 75.2C71.5 75.2 71.2 74.9 71.3 74.3L72.7 68.9C72.8 68.4 73.4 67.9 73.9 67.9L79.5 67.4L77.9 73.8ZM144.2 67.9C144.1 68.4 143.5 68.9 143 68.9L138.3 69.3C137.8 69.3 137.5 69 137.6 68.4L142.4 50.4C142.5 49.9 143.1 49.4 143.6 49.4L149.2 48.9L144.2 67.9Z" fill="white"/>
<path d="M73.9 34.1L76.3 31.2C78 32.6 79.8 33.5 81.9 33.5C83.6 33.5 84.6 32.8 84.6 31.7V31.6C84.6 30.5 84 30 80.8 29.2C77 28.2 74.6 27.2 74.6 23.4V23.3C74.6 19.9 77.3 17.6 81.2 17.6C83.9 17.6 86.3 18.5 88.2 20L86 23.2C84.3 22 82.7 21.3 81.1 21.3C79.5 21.3 78.7 22 78.7 22.9V23C78.7 24.2 79.5 24.6 82.8 25.5C86.6 26.5 88.8 27.9 88.8 31.2V31.3C88.8 35.1 86 37.2 81.9 37.2C79 37.1 76.1 36.1 73.9 34.1Z" fill="white"/>
<path d="M89.9 34.1L92.3 31.2C94 32.6 95.8 33.5 97.9 33.5C99.6 33.5 100.6 32.8 100.6 31.7V31.6C100.6 30.5 100 30 96.8 29.2C93 28.2 90.6 27.2 90.6 23.4V23.3C90.6 19.9 93.3 17.6 97.2 17.6C99.9 17.6 102.3 18.5 104.2 20L102 23.1C100.3 21.9 98.7 21.2 97.1 21.2C95.5 21.2 94.7 21.9 94.7 22.8V22.9C94.7 24.1 95.5 24.5 98.8 25.4C102.6 26.4 104.8 27.8 104.8 31.1V31.2C104.8 35 102 37.1 97.9 37.1C95 37.1 92.2 36.1 89.9 34.1Z" fill="white"/>
<path d="M106.4 27.5C106.4 22.1 110.6 17.7 116.3 17.7C119.7 17.7 121.7 18.6 123.7 20.3L121.1 23.5C119.6 22.3 118.4 21.6 116.2 21.6C113.2 21.6 110.8 24.3 110.8 27.5V27.6C110.8 31.1 113.2 33.6 116.5 33.6C118 33.6 119.3 33.2 120.4 32.5V29.8H116.2V26H124.4V34.2C122.5 35.8 119.8 37.2 116.4 37.2C110.5 37.2 106.4 33.1 106.4 27.5Z" fill="white"/>
<path d="M69.9 78.9C67.2 79.1 65.7 77.1 66.4 74.3L68.1 67.8C68.3 67.1 68.7 66.5 69.3 66L65.3 63.9C64.4 64.7 63.7 65.7 63.4 66.8L61.4 74.3C60.1 79.3 62.9 83 67.7 82.6L77.5 81.7C78.5 81.6 79.6 80.9 80.3 80C81 80.8 82.3 81.3 83.9 81.1L90 80.6L88.6 77.2L69.9 78.9Z" fill="#C9CACC"/>
<path d="M105.4 49.3L101.3 46.1L92.1 80.5L102.3 79.6L98.2 76.4L105.4 49.3Z" fill="#C9CACC"/>
<path d="M150.7 19.6L155.8 24.3L151.2 41.7L155.4 44.9L161.4 22.4L150.7 19.6Z" fill="#C9CACC"/>
<path d="M184.9 55.6L168.1 57L172.4 59.5L189.2 58L184.9 55.6Z" fill="#C9CACC"/>
<path d="M201.5 38.5C200.6 39.3 199.9 40.4 199.7 41.5L191.6 71.8L201.8 70.9L197.7 67.7L204.2 43.1C204.4 42.4 204.8 41.7 205.3 41.2L201.5 38.5Z" fill="#C9CACC"/>
<path d="M207.2 40.4C206.6 40.5 205.9 40.8 205.4 41.3L209.3 44.1C209.5 43.9 209.8 43.8 210 43.8L220.7 42.9L217.5 39.6L207.2 40.4Z" fill="#C9CACC"/>
<path d="M121.8 74.4L119.8 74.6C117.1 74.8 115.6 72.8 116.3 70L120.9 52.9C121.6 50.1 120.1 48.1 117.4 48.3L105.4 49.4L109.5 52.6L115.1 52.1C115.6 52.1 115.9 52.4 115.8 53L111.3 70C110 75 112.8 78.7 117.6 78.3L123.2 77.8L121.8 74.4Z" fill="#C9CACC"/>
<path d="M85.5 64L71.1 65.3C70.4 65.4 69.8 65.7 69.2 66.2L73.2 68.3C73.4 68.1 73.7 68 73.9 68L79.5 67.5L77.8 73.9C77.7 74.2 77.6 74.4 77.4 74.6L80.4 78.2C81.1 78.1 81.9 77.5 82.1 76.7L85.5 64Z" fill="#C9CACC"/>
<path d="M84.2 51.2L71.4 52.3L68.1 49L66.2 56.3L82 54.9C82.5 54.9 82.8 55.2 82.7 55.8L81.2 61.5L85.5 64L87.7 55.8C88.5 53 86.9 50.9 84.2 51.2Z" fill="#C9CACC"/>
<path d="M183.7 42.4L174 43.2C173.4 43.3 172.7 43.6 172.2 44.1L176.1 46.9C176.3 46.7 176.6 46.6 176.8 46.6L181.5 46.2C182 46.2 182.3 46.5 182.2 47.1L180.6 53.1L184.9 55.6L187.2 47C187.9 44.2 186.3 42.2 183.7 42.4Z" fill="#C9CACC"/>
<path d="M244.4 37.1L232.3 38.2C231.7 38.3 231 38.6 230.5 39.1L234.4 41.9C234.6 41.7 234.9 41.6 235.1 41.6L247.7 40.5L244.4 37.1Z" fill="#C9CACC"/>
<path d="M226.6 36.3L230.5 39.1C230 39.6 229.5 40.3 229.4 41L227.8 47C227.1 49.8 228.6 51.8 231.3 51.6L235.1 51.3C237.8 51.1 239.3 53.1 238.6 55.9L237 61.9C236.8 62.6 236.4 63.3 235.9 63.8L232 61C232.2 60.8 232.4 60.6 232.4 60.3L233.8 55.2C233.9 54.7 233.6 54.3 233.1 54.3L229.3 54.6C224.5 55 221.7 51.3 223 46.3L224.8 39.3" fill="#C9CACC"/>
<path d="M235.8 63.6C235.3 64.1 234.6 64.4 234 64.5L216.9 66L213 62.8L214.2 69.8L236.8 67.8C237.8 67.7 238.9 67.2 239.7 66.3L235.8 63.6Z" fill="#C9CACC"/>
<path d="M154.9 71.4L136.1 73.1C133.4 73.3 131.9 71.3 132.6 68.5L137.8 48.9C138 48.2 138.4 47.5 138.9 47L135 44.2C134.1 45 133.4 46.1 133.2 47.2L127.5 68.4C126.2 73.4 129 77.1 133.8 76.7L143.6 75.8C144.7 75.7 145.7 75 146.4 74.1C147.1 74.9 148.4 75.4 150 75.2L156.2 74.7L154.9 71.4Z" fill="#C9CACC"/>
<path d="M188.1 68.5L169.3 70.2C166.6 70.4 165.1 68.4 165.8 65.6L171 46C171.2 45.3 171.6 44.6 172.1 44.1L168.2 41.3C167.3 42.1 166.6 43.2 166.4 44.3L160.7 65.5C159.4 70.5 162.2 74.2 167 73.8L189.4 71.8L188.1 68.5Z" fill="#C9CACC"/>
<path d="M201.6 89.1L193.3 87.2L35.9 112.9L57.4 32.1L45.9 29L51 33.7L28 120.2L201.6 89.1Z" fill="#C9CACC"/>
<path d="M140.9 46.2C140.3 46.3 139.6 46.6 139.1 47.1L143 49.9C143.2 49.7 143.5 49.6 143.7 49.6L149.3 49.1L144.3 68C144.2 68.3 144.1 68.5 143.9 68.7L146.9 72.3C147.6 72.2 148.4 71.6 148.6 70.8L155.5 45.1L140.9 46.2Z" fill="#C9CACC"/>
<path d="M213 77.6L210.9 65.4L205 78.6L196 82.6L43.3 99.9L49 105.1L195 85L203.9 87L206 99.2L211.8 86L224.6 80.3L213 77.6Z" fill="#FDBB30"/>
<path d="M209.6 74.4L211.1 79.6L216.1 81.3L210.4 84.3L207.3 90.1L205.8 84.9L200.8 83.2L206.5 80.2L209.6 74.4Z" fill="#00483A"/>
</svg>
