<svg width="200" height="92" viewBox="0 0 200 92" fill="none" xmlns="http://www.w3.org/2000/svg">
<g clip-path="url(#clip0_21_30)">
<path d="M185.875 22.2809C185.999 21.8129 186.467 21.4015 186.92 21.3637L198.249 20.371L200 13.8374L181.957 15.4151C180.105 15.5812 178.157 17.3854 177.629 19.4199L175.957 25.6667C174.757 30.147 177.304 33.4686 181.648 33.0912L185.101 32.7892C185.554 32.7514 185.818 33.0949 185.694 33.563L184.467 38.1415C184.343 38.6095 183.875 39.0209 183.422 39.0587L166.926 40.5005L166.081 35.7258L158.333 53.1716L151.386 56.2402L17.1444 67.9865L33.0207 8.70779L16.1443 10.2176L20.7823 14.4149L0 92L156.688 64.1365L159.575 80.2613L167.323 62.8154L184.339 55.2966L168.923 51.8467L168.028 46.7889L188.392 45.0073C190.245 44.8412 192.192 43.037 192.72 41.0025L194.381 34.7595C195.581 30.2791 193.034 26.9538 188.694 27.3312L185.241 27.6332C184.788 27.671 184.524 27.3275 184.648 26.8594L185.875 22.2809Z" fill="white"/>
<path d="M173.848 22.5074L175.584 15.9737L159.205 17.408C157.352 17.5741 155.405 19.3783 154.877 21.4128L149.352 42.0405L129.498 43.7768C129.045 43.8145 128.781 43.4711 128.905 43.003L130.358 37.579L145.495 36.2542L148.163 26.297C149.363 21.8167 146.816 18.4913 142.472 18.8688L129.305 20.02C127.453 20.1861 125.505 21.9903 124.977 24.0248L119.875 43.071C119.731 43.6107 119.641 44.1354 119.603 44.6374L114.731 45.0639C114.278 45.1017 114.014 44.7582 114.139 44.2901L125.886 0.400085L110.731 1.75891L115.369 5.95617L111.176 21.6129L99.3868 22.6433C97.5338 22.8094 95.5865 24.6136 95.0582 26.6481L89.956 45.6942C89.8126 46.234 89.7221 46.7587 89.6843 47.2607L84.8124 47.6872C84.3595 47.7249 84.0953 47.3815 84.2199 46.9134L88.3409 31.5323C89.5409 27.0519 86.9936 23.7266 82.65 24.104L66.1471 25.5497L59.626 49.8915L54.905 50.3029C54.4521 50.3407 54.188 49.9972 54.3125 49.5292L58.4335 34.148C59.6336 29.6677 57.0863 26.3423 52.7426 26.7198L36.2398 28.1654L34.4887 34.6991L48.7914 33.446C49.2443 33.4082 49.5085 33.7517 49.3839 34.2197L48.0103 39.3455L36.3266 40.3684C34.4284 40.5345 32.4622 42.2594 31.9377 44.2184L30.1413 50.922C28.9413 55.4023 31.4886 58.7276 35.8322 58.3502L44.6818 57.5764C45.629 57.4934 46.5951 56.8819 47.2404 56.0515C47.8933 56.7913 49.0254 57.199 50.4481 57.0744L56.0371 56.5837L58.7128 53.3263L57.8825 56.4214L67.1132 55.6137L73.6344 31.2718L78.7063 30.8264C79.1592 30.7887 79.4234 31.1322 79.2988 31.6002L75.1778 46.9814C73.9778 51.4617 76.5251 54.7871 80.8687 54.4096L85.9445 53.9642L89.8202 49.2423C90.3976 51.7901 92.5713 53.3829 95.6507 53.1149L104.5 52.3412C105.447 52.2581 106.414 51.6467 107.059 50.8163C107.712 51.5561 108.844 51.9637 110.267 51.8392L115.856 51.3485L119.731 46.6266C120.309 49.1744 122.482 50.7672 125.562 50.4992L145.763 48.7327L148.439 45.4753L147.608 48.5704L156.839 47.7627L163.134 24.2663C163.258 23.7983 163.726 23.3869 164.179 23.3491L173.855 22.5036L173.848 22.5074ZM133.215 26.8896C133.34 26.4216 133.808 26.0102 134.26 25.9724L138.514 25.5987C138.966 25.561 139.231 25.9045 139.106 26.3725L137.653 31.7965L131.762 32.3136L133.215 26.8896ZM45.0667 50.3407C44.9422 50.8087 44.4742 51.2201 44.0214 51.2579L39.7683 51.6316C39.3154 51.6693 39.0513 51.3258 39.1758 50.8578L40.4815 45.9849C40.6061 45.5168 41.074 45.1054 41.5269 45.0677L46.5989 44.6223L45.0667 50.3445V50.3407ZM104.881 45.1054C104.757 45.5735 104.289 45.9849 103.836 46.0226L99.583 46.3963C99.1301 46.4341 98.866 46.0906 98.9905 45.6225L103.308 29.5091C103.432 29.0411 103.9 28.6297 104.353 28.5919L109.425 28.1465L104.881 45.1054Z" fill="white"/>
<path d="M41.4061 14.781L43.61 12.1388C45.1346 13.3995 46.7347 14.1997 48.6745 14.1997C50.1991 14.1997 51.1237 13.5958 51.1237 12.5993V12.5503C51.1237 11.6066 50.5425 11.1197 47.7084 10.395C44.2931 9.52309 42.0892 8.57569 42.0892 5.20882V5.15975C42.0892 2.08353 44.561 0.0452881 48.0254 0.0452881C50.4972 0.0452881 52.603 0.819063 54.3238 2.20054L52.3841 5.01255C50.8821 3.97078 49.4028 3.34044 47.9763 3.34044C46.5498 3.34044 45.795 3.99343 45.795 4.82005V4.86912C45.795 5.9826 46.5234 6.34873 49.4519 7.09985C52.8936 7.99819 54.8295 9.23246 54.8295 12.1879V12.237C54.8295 15.6038 52.2596 17.4949 48.6028 17.4949C46.0328 17.4949 43.444 16.5965 41.4061 14.781Z" fill="white"/>
<path d="M55.8786 14.781L58.0825 12.1388C59.6072 13.3995 61.2072 14.1997 63.147 14.1997C64.6716 14.1997 65.5924 13.5958 65.5924 12.5993V12.5503C65.5924 11.6066 65.0112 11.1197 62.1771 10.395C58.7618 9.52309 56.5579 8.57569 56.5579 5.20882V5.15975C56.5579 2.08353 59.0298 0.0452881 62.4941 0.0452881C64.9659 0.0452881 67.0717 0.819063 68.7926 2.20054L66.8528 5.01255C65.3509 3.97078 63.8715 3.34044 62.445 3.34044C61.0186 3.34044 60.2638 3.99343 60.2638 4.82005V4.86912C60.2638 5.9826 60.9921 6.34873 63.9206 7.09985C67.3623 7.99819 69.2983 9.23246 69.2983 12.1879V12.237C69.2983 15.6038 66.7321 17.4949 63.0715 17.4949C60.5015 17.4949 57.9127 16.5965 55.8749 14.781H55.8786Z" fill="white"/>
<path d="M70.804 8.82104V8.77197C70.804 3.94814 74.5589 0 79.6951 0C82.7481 0 84.5897 0.822844 86.3558 2.3251L84.0048 5.15976C82.6953 4.06893 81.5329 3.43858 79.5706 3.43858C76.8572 3.43858 74.7024 5.83917 74.7024 8.7229V8.77197C74.7024 11.8746 76.8345 14.1507 79.8385 14.1507C81.1933 14.1507 82.4084 13.8109 83.3519 13.1315V10.7083H79.597V7.48486H86.9634V14.8527C85.2199 16.3323 82.8198 17.5439 79.7177 17.5439C74.4344 17.5439 70.804 13.8374 70.804 8.82104Z" fill="white"/>
<path d="M37.7984 54.9947C35.402 55.206 33.9944 53.3679 34.6586 50.8955L36.2096 45.1054C36.3719 44.4978 36.7568 43.9278 37.2512 43.4975L33.617 41.6291C32.8207 42.3274 32.1981 43.2484 31.9377 44.226L30.1413 50.9295C28.9413 55.4099 31.4886 58.7352 35.8322 58.3578L44.6818 57.584C45.629 57.5009 46.5951 56.8895 47.2404 56.0591C47.8933 56.7989 49.0254 57.2065 50.4481 57.082L55.9201 56.6026L54.6446 53.5226L37.8059 54.9947H37.7984Z" fill="#C9CACC"/>
<path d="M69.887 28.4145L66.1471 25.5497L57.875 56.429L67.1057 55.6212L63.3659 52.7564L69.887 28.4145Z" fill="#C9CACC"/>
<path d="M110.731 1.75891L115.373 5.95617L111.176 21.6091L114.923 24.4739L120.331 4.29161L110.731 1.75891Z" fill="#C9CACC"/>
<path d="M141.57 34.0273L126.441 35.3521L130.351 37.5828L145.487 36.258L141.57 34.0273Z" fill="#C9CACC"/>
<path d="M156.541 18.7103C155.756 19.435 155.137 20.3975 154.873 21.4128L147.597 48.5742L156.828 47.7665L153.088 44.9016L158.998 22.8396C159.16 22.213 159.545 21.6242 160.032 21.1788L156.541 18.7065V18.7103Z" fill="#C9CACC"/>
<path d="M161.688 20.3824C161.111 20.4352 160.522 20.7372 160.035 21.1826L163.526 23.6549C163.715 23.4888 163.945 23.3756 164.172 23.3567L173.848 22.5112L170.915 19.5784L161.688 20.3861V20.3824Z" fill="#C9CACC"/>
<path d="M84.6614 50.8918L82.8349 51.0503C80.4385 51.2617 79.0309 49.4235 79.6951 46.9512L83.8161 31.57C84.4803 29.094 83.0726 27.2596 80.6763 27.4709L69.887 28.4146L73.6268 31.2794L78.6988 30.834C79.1517 30.7925 79.4158 31.1398 79.2913 31.6078L75.1703 46.9889C73.9702 51.4693 76.5175 54.7946 80.8612 54.4172L85.9369 53.9718L84.6614 50.8918Z" fill="#C9CACC"/>
<path d="M51.9275 41.58L38.9267 42.7162C38.338 42.769 37.7418 43.0596 37.2474 43.4899L40.8816 45.3583C41.0703 45.1922 41.3005 45.079 41.5269 45.0601L46.5989 44.6147L45.0667 50.3369C45.0025 50.5709 44.8554 50.7899 44.6667 50.9559L47.3876 54.1492C48.0518 54.0926 48.7348 53.4886 48.9198 52.8054L51.9275 41.5763V41.58Z" fill="#C9CACC"/>
<path d="M50.7689 30.0866L39.1758 31.102L36.2436 28.1692L34.4925 34.7029L48.7952 33.4497C49.2481 33.412 49.5122 33.7555 49.3877 34.2235L48.014 39.3493L51.9312 41.58L53.9125 34.1858C54.5767 31.7097 53.169 29.8753 50.7727 30.0866H50.7689Z" fill="#C9CACC"/>
<path d="M140.491 22.2357L131.781 22.9981C131.204 23.051 130.615 23.3529 130.128 23.7983L133.619 26.2706C133.808 26.1046 134.038 25.9913 134.264 25.9724L138.517 25.5988C138.97 25.561 139.234 25.9045 139.11 26.3725L137.657 31.7965L141.574 34.0273L143.635 26.3386C144.299 23.8625 142.891 22.0281 140.495 22.2394L140.491 22.2357Z" fill="#C9CACC"/>
<path d="M195.317 17.4383L184.441 18.3894C183.863 18.4423 183.275 18.7442 182.788 19.1896L186.278 21.6619C186.467 21.4959 186.697 21.3826 186.924 21.3638L198.253 20.3711L195.32 17.4383H195.317Z" fill="#C9CACC"/>
<path d="M177.625 19.4236C177.889 18.4045 178.508 17.4458 179.293 16.7211L182.784 19.1934C182.297 19.6388 181.912 20.2276 181.75 20.8542L180.301 26.2668C179.64 28.7391 181.044 30.5773 183.444 30.366L186.897 30.064C189.294 29.8526 190.701 31.6908 190.037 34.1631L188.592 39.572C188.43 40.1986 188.045 40.7874 187.558 41.2328L184.063 38.7605C184.252 38.5944 184.403 38.3755 184.463 38.1415L185.69 33.563C185.814 33.0949 185.55 32.7477 185.097 32.7892L181.644 33.0912C177.304 33.4724 174.757 30.147 175.953 25.6667L177.625 19.4199C177.889 18.4007 178.508 17.442 179.293 16.7173" fill="#C9CACC"/>
<path d="M187.558 41.2328C187.071 41.6782 186.478 41.9801 185.905 42.033L170.444 43.3843L166.919 40.5043L168.028 46.7851L188.392 45.0035C189.316 44.9205 190.267 44.426 191.052 43.7013L187.558 41.229V41.2328Z" fill="#C9CACC"/>
<path d="M114.569 48.276L97.6131 49.7594C95.2167 49.9708 93.8091 48.1326 94.4733 45.6603L99.183 28.0786C99.3452 27.452 99.7302 26.8632 100.217 26.4178L96.7262 23.9455C95.9413 24.6702 95.3224 25.6327 95.0582 26.6481L89.956 45.6943C88.756 50.1746 91.3033 53.5 95.6469 53.1225L104.496 52.3487C105.444 52.2657 106.41 51.6542 107.055 50.8238C107.708 51.5636 108.84 51.9713 110.263 51.8467L115.852 51.356L114.576 48.276H114.569Z" fill="#C9CACC"/>
<path d="M144.476 45.6603L127.52 47.1437C125.124 47.355 123.716 45.5169 124.381 43.0446L129.09 25.4629C129.253 24.8363 129.638 24.2475 130.124 23.8021L126.634 21.3298C125.849 22.0545 125.23 23.017 124.966 24.0323L119.863 43.0785C118.663 47.5589 121.211 50.8842 125.554 50.5068L145.755 48.7403L144.48 45.6603H144.476Z" fill="#C9CACC"/>
<path d="M156.688 64.1365L149.242 62.4682L7.11361 85.4286L26.5298 12.9541L16.1481 10.2176L20.7861 14.4111L0 92L156.688 64.1365Z" fill="#C9CACC"/>
<path d="M101.874 25.6176C101.296 25.6705 100.708 25.9724 100.221 26.4178L103.712 28.8901C103.9 28.724 104.13 28.6108 104.357 28.5919L109.429 28.1465L104.885 45.1054C104.821 45.3395 104.674 45.5584 104.485 45.7245L107.206 48.9177C107.87 48.8611 108.553 48.2571 108.738 47.574L114.927 24.4739L101.874 25.6176Z" fill="#C9CACC"/>
<path d="M166.972 53.817L165.036 42.8634L159.768 54.7191L151.677 58.2974L13.8234 73.7993L18.9558 78.4495L150.68 60.3847L158.681 62.1738L160.617 73.1274L165.885 61.2717L177.452 56.161L166.972 53.817Z" fill="#FDBB30"/>
<path d="M163.858 50.9257L165.175 55.6288L169.659 57.1386L164.56 59.8524L161.794 65.0651L160.477 60.362L155.994 58.8522L161.096 56.1383L163.858 50.9257Z" fill="#00483A"/>
</g>
<defs>
<clipPath id="clip0_21_30">
<rect width="200" height="92" fill="white"/>
</clipPath>
</defs>
</svg>
