<svg width="355" height="149" viewBox="0 0 355 149" fill="none" xmlns="http://www.w3.org/2000/svg">
<path d="M0 148.2L182.6 112.4L203.6 131.8L233.3 98.4L355 60.2H21L0 148.2Z" fill="#083737"/>
<path d="M354.9 60H21V60.2H354.9V60Z" fill="#CE152D"/>
<path d="M355 0.199997H21V60H355V0.199997Z" fill="#083737"/>
<path d="M233.3 42.5C233.4 42 234 41.5 234.5 41.5L247.1 40.4L249 33.1L229 34.9C226.9 35.1 224.8 37.1 224.2 39.4L222.3 46.4C221 51.4 223.8 55.1 228.6 54.7L232.4 54.4C232.9 54.4 233.2 54.7 233.1 55.3L231.7 60.4C231.6 60.9 231 61.4 230.5 61.4L212.3 62.8L211.4 57.5L202.8 76.9L195.1 80.3L46.3 93.4L63.9 27.3L45.2001 29L50.3 33.7L27.3 120.2L200.9 89.1L204.1 107.1L212.7 87.7L231.6 79.3L214.5 75.5L213.5 69.9L236.1 67.9C238.2 67.7 240.3 65.7 240.9 63.4L242.7 56.4C244 51.4 241.2 47.7 236.4 48.1L232.6 48.4C232.1 48.4 231.8 48.1 231.9 47.5L233.3 42.5Z" fill="white"/>
<path d="M219.9 42.7L221.8 35.4L203.7 37C201.6 37.2 199.5 39.2 198.9 41.5L192.8 64.5L170.8 66.4C170.3 66.4 170 66.1 170.1 65.5L171.7 59.5L188.5 58L191.5 46.9C192.8 41.9 190 38.2 185.2 38.6L170.6 40C168.5 40.2 166.4 42.2 165.8 44.5L160.1 65.7C159.9 66.3 159.8 66.9 159.8 67.4L154.4 67.9C153.9 67.9 153.6 67.6 153.7 67L166.7 18.1L149.9 19.6L155 24.3L150.4 41.8L137.3 42.9C135.2 43.1 133.1 45.1 132.5 47.4L126.8 68.6C126.6 69.2 126.5 69.8 126.5 70.3L121.1 70.8C120.6 70.8 120.3 70.5 120.4 69.9L125 52.8C126.3 47.8 123.5 44.1 118.7 44.5L100.4 46.1L93.2 73.2L88 73.7C87.5 73.7 87.2 73.4 87.3 72.8L91.9 55.7C93.2 50.7 90.4 47 85.6 47.4L67.4 49L65.5 56.3L81.3 54.9C81.8 54.9 82.1 55.2 82 55.8L80.5 61.5L67.6 62.6C65.5 62.8 63.3 64.7 62.7 66.9L60.7 74.4C59.4 79.4 62.2 83.1 67 82.7L76.8 81.8C77.8 81.7 78.9 81 79.6 80.1C80.3 80.9 81.6 81.4 83.2 81.2L89.4 80.7L92.4 77.1L91.5 80.5L101.7 79.6L108.9 52.5L114.5 52C115 52 115.3 52.3 115.2 52.9L110.6 70C109.3 75 112.1 78.7 116.9 78.3L122.5 77.8L126.8 72.5C127.4 75.3 129.8 77.1 133.3 76.8L143.1 75.9C144.2 75.8 145.2 75.1 145.9 74.2C146.6 75 147.9 75.5 149.5 75.3L155.7 74.8L160 69.5C160.6 72.3 163 74.1 166.5 73.8L188.9 71.8L191.9 68.2L191 71.6L201.2 70.7L208.2 44.5C208.3 44 208.9 43.5 209.4 43.5L219.9 42.7ZM174.9 47.6C175 47.1 175.6 46.6 176.1 46.6L180.8 46.2C181.3 46.2 181.6 46.5 181.5 47.1L179.9 53.1L173.4 53.7L174.9 47.6ZM77.2 73.8C77.1 74.3 76.5 74.8 76 74.8L71.3 75.2C70.8 75.2 70.5 74.9 70.6 74.3L72 68.9C72.1 68.4 72.7 67.9 73.2 67.9L78.8 67.4L77.2 73.8ZM143.5 67.9C143.4 68.4 142.8 68.9 142.3 68.9L137.6 69.3C137.1 69.3 136.8 69 136.9 68.4L141.7 50.4C141.8 49.9 142.4 49.4 142.9 49.4L148.5 48.9L143.5 67.9Z" fill="white"/>
<path d="M73.2001 34.1L75.6001 31.2C77.3001 32.6 79.1001 33.5 81.2001 33.5C82.9001 33.5 83.9001 32.8 83.9001 31.7V31.6C83.9001 30.5 83.3001 30 80.1001 29.2C76.3001 28.2 73.9001 27.2 73.9001 23.4V23.3C73.9001 19.9 76.6001 17.6 80.5001 17.6C83.2001 17.6 85.6001 18.5 87.5001 20L85.3001 23.2C83.6001 22 82.0001 21.3 80.4001 21.3C78.8001 21.3 78.0001 22 78.0001 22.9V23C78.0001 24.2 78.8001 24.6 82.1001 25.5C85.9001 26.5 88.1001 27.9 88.1001 31.2V31.3C88.1001 35.1 85.3001 37.2 81.2001 37.2C78.3001 37.1 75.4001 36.1 73.2001 34.1Z" fill="white"/>
<path d="M89.2001 34.1L91.6001 31.2C93.3001 32.6 95.1001 33.5 97.2001 33.5C98.9001 33.5 99.9001 32.8 99.9001 31.7V31.6C99.9001 30.5 99.3001 30 96.1001 29.2C92.3001 28.2 89.9001 27.2 89.9001 23.4V23.3C89.9001 19.9 92.6001 17.6 96.5001 17.6C99.2001 17.6 101.6 18.5 103.5 20L101.3 23.1C99.6001 21.9 98.0001 21.2 96.4001 21.2C94.8001 21.2 94.0001 21.9 94.0001 22.8V22.9C94.0001 24.1 94.8001 24.5 98.1001 25.4C101.9 26.4 104.1 27.8 104.1 31.1V31.2C104.1 35 101.3 37.1 97.2001 37.1C94.3001 37.1 91.5001 36.1 89.2001 34.1Z" fill="white"/>
<path d="M105.7 27.5C105.7 22.1 109.9 17.7 115.6 17.7C119 17.7 121 18.6 123 20.3L120.4 23.5C118.9 22.3 117.7 21.6 115.5 21.6C112.5 21.6 110.1 24.3 110.1 27.5V27.6C110.1 31.1 112.5 33.6 115.8 33.6C117.3 33.6 118.6 33.2 119.7 32.5V29.8H115.5V26H123.7V34.2C121.8 35.8 119.1 37.2 115.7 37.2C109.8 37.2 105.7 33.1 105.7 27.5Z" fill="white"/>
<path d="M69.2 78.9C66.5 79.1 65 77.1 65.7 74.3L67.4 67.8C67.6 67.1 68 66.5 68.6 66L64.6 63.9C63.7 64.7 63 65.7 62.7 66.8L60.7 74.3C59.4 79.3 62.2 83 67 82.6L76.8 81.7C77.8 81.6 78.9 80.9 79.6 80C80.3 80.8 81.6 81.3 83.2 81.1L89.3 80.6L87.9 77.2L69.2 78.9Z" fill="#C9CACC"/>
<path d="M104.7 49.3L100.6 46.1L91.4 80.5L101.6 79.6L97.5 76.4L104.7 49.3Z" fill="#C9CACC"/>
<path d="M150 19.6L155.1 24.3L150.5 41.7L154.7 44.9L160.7 22.4L150 19.6Z" fill="#C9CACC"/>
<path d="M184.2 55.6L167.4 57L171.7 59.5L188.5 58L184.2 55.6Z" fill="#C9CACC"/>
<path d="M200.8 38.5C199.9 39.3 199.2 40.4 199 41.5L190.9 71.8L201.1 70.9L197 67.7L203.5 43.1C203.7 42.4 204.1 41.7 204.6 41.2L200.8 38.5Z" fill="#C9CACC"/>
<path d="M206.5 40.4C205.9 40.5 205.2 40.8 204.7 41.3L208.6 44.1C208.8 43.9 209.1 43.8 209.3 43.8L220 42.9L216.8 39.6L206.5 40.4Z" fill="#C9CACC"/>
<path d="M121.1 74.4L119.1 74.6C116.4 74.8 114.9 72.8 115.6 70L120.2 52.9C120.9 50.1 119.4 48.1 116.7 48.3L104.7 49.4L108.8 52.6L114.4 52.1C114.9 52.1 115.2 52.4 115.1 53L110.6 70C109.3 75 112.1 78.7 116.9 78.3L122.5 77.8L121.1 74.4Z" fill="#C9CACC"/>
<path d="M84.8 64L70.4 65.3C69.7 65.4 69.1 65.7 68.5 66.2L72.5 68.3C72.7 68.1 73 68 73.2 68L78.8 67.5L77.1 73.9C77 74.2 76.9 74.4 76.7 74.6L79.7 78.2C80.4 78.1 81.2 77.5 81.4 76.7L84.8 64Z" fill="#C9CACC"/>
<path d="M83.5 51.2L70.7 52.3L67.4 49L65.5 56.3L81.3 54.9C81.8 54.9 82.1 55.2 82 55.8L80.5 61.5L84.8 64L87 55.8C87.8 53 86.2 50.9 83.5 51.2Z" fill="#C9CACC"/>
<path d="M183 42.4L173.3 43.2C172.7 43.3 172 43.6 171.5 44.1L175.4 46.9C175.6 46.7 175.9 46.6 176.1 46.6L180.8 46.2C181.3 46.2 181.6 46.5 181.5 47.1L179.9 53.1L184.2 55.6L186.5 47C187.2 44.2 185.6 42.2 183 42.4Z" fill="#C9CACC"/>
<path d="M243.7 37.1L231.6 38.2C231 38.3 230.3 38.6 229.8 39.1L233.7 41.9C233.9 41.7 234.2 41.6 234.4 41.6L247 40.5L243.7 37.1Z" fill="#C9CACC"/>
<path d="M225.9 36.3L229.8 39.1C229.3 39.6 228.8 40.3 228.7 41L227.1 47C226.4 49.8 227.9 51.8 230.6 51.6L234.4 51.3C237.1 51.1 238.6 53.1 237.9 55.9L236.3 61.9C236.1 62.6 235.7 63.3 235.2 63.8L231.3 61C231.5 60.8 231.7 60.6 231.7 60.3L233.1 55.2C233.2 54.7 232.9 54.3 232.4 54.3L228.6 54.6C223.8 55 221 51.3 222.3 46.3L224.1 39.3" fill="#C9CACC"/>
<path d="M235.1 63.6C234.6 64.1 233.9 64.4 233.3 64.5L216.2 66L212.3 62.8L213.5 69.8L236.1 67.8C237.1 67.7 238.2 67.2 239 66.3L235.1 63.6Z" fill="#C9CACC"/>
<path d="M154.2 71.4L135.4 73.1C132.7 73.3 131.2 71.3 131.9 68.5L137.1 48.9C137.3 48.2 137.7 47.5 138.2 47L134.3 44.2C133.4 45 132.7 46.1 132.5 47.2L126.8 68.4C125.5 73.4 128.3 77.1 133.1 76.7L142.9 75.8C144 75.7 145 75 145.7 74.1C146.4 74.9 147.7 75.4 149.3 75.2L155.5 74.7L154.2 71.4Z" fill="#C9CACC"/>
<path d="M187.4 68.5L168.6 70.2C165.9 70.4 164.4 68.4 165.1 65.6L170.3 46C170.5 45.3 170.9 44.6 171.4 44.1L167.5 41.3C166.6 42.1 165.9 43.2 165.7 44.3L160 65.5C158.7 70.5 161.5 74.2 166.3 73.8L188.7 71.8L187.4 68.5Z" fill="#C9CACC"/>
<path d="M200.9 89.1L192.6 87.2L35.2001 112.9L56.7001 32.1L45.2001 29L50.3 33.7L27.3 120.2L200.9 89.1Z" fill="#C9CACC"/>
<path d="M140.2 46.2C139.6 46.3 138.9 46.6 138.4 47.1L142.3 49.9C142.5 49.7 142.8 49.6 143 49.6L148.6 49.1L143.6 68C143.5 68.3 143.4 68.5 143.2 68.7L146.2 72.3C146.9 72.2 147.7 71.6 147.9 70.8L154.8 45.1L140.2 46.2Z" fill="#C9CACC"/>
<path d="M212.3 77.6L210.2 65.4L204.3 78.6L195.3 82.6L42.6001 99.9L48.3001 105.1L194.3 85L203.2 87L205.3 99.2L211.1 86L223.9 80.3L212.3 77.6Z" fill="#FDBB30"/>
<path d="M208.9 74.4L210.4 79.6L215.4 81.3L209.7 84.3L206.6 90.1L205.1 84.9L200.1 83.2L205.8 80.2L208.9 74.4Z" fill="#00483A"/>
</svg>
